<svg xmlns="http://www.w3.org/2000/svg" width="375" viewBox="0 0 375 375" height="375" version="1.0"><defs><clipPath id="a"><path d="M 46.542969 40.972656 L 342.792969 40.972656 L 342.792969 337.222656 L 46.542969 337.222656 Z M 46.542969 40.972656"/></clipPath></defs><g clip-path="url(#a)"><path fill="#F1EEE2" d="M 110.207031 40.972656 L 342.800781 40.972656 L 342.800781 337.230469 L 46.542969 337.230469 L 46.542969 292.476562 C 47.316406 293.460938 48.09375 294.441406 48.882812 295.421875 L 48.882812 334.890625 L 340.453125 334.890625 L 340.453125 43.3125 L 108.851562 43.3125 C 109.296875 42.558594 109.730469 41.808594 110.164062 41.050781 Z M 110.207031 40.972656" fill-rule="evenodd"/></g><g fill="#F1EEE2"><g><g><path d="M 76.152344 -14.019531 L 58.398438 -80.691406 L 25.015625 -80.691406 C 26.125 -76.554688 25.71875 -74.738281 24.710938 -70.703125 L 9.582031 -12.105469 C 8.574219 -8.371094 7.867188 -5.75 5.042969 0 L 10.390625 0 C 10.792969 -5.347656 11.597656 -8.371094 12.609375 -12.203125 L 16.640625 -27.9375 L 42.363281 -27.9375 L 46.09375 -14.019531 C 47.605469 -8.371094 48.3125 -5.949219 48.515625 0 L 81.699219 0 C 79.378906 -4.035156 77.867188 -7.464844 76.152344 -14.019531 Z M 17.449219 -30.964844 L 29.25 -76.859375 L 41.554688 -30.964844 Z M 17.449219 -30.964844" transform="translate(99.345 217.224)"/></g></g></g><g fill="#F1EEE2"><g><g><path d="M 4.035156 -22.289062 C 16.136719 -4.742188 29.046875 2.015625 48.210938 2.015625 C 63.039062 2.015625 75.949219 -5.144531 75.949219 -20.574219 C 75.949219 -36.210938 65.460938 -43.167969 43.371094 -55.980469 C 25.820312 -66.167969 23.5 -68.789062 23.5 -72.519531 C 23.5 -76.253906 27.535156 -79.683594 34.496094 -79.683594 C 47.910156 -79.683594 52.953125 -66.871094 57.390625 -53.859375 L 75.546875 -61.929688 C 63.039062 -77.765625 50.734375 -82.707031 36.210938 -82.707031 C 21.683594 -82.707031 8.371094 -76.253906 8.371094 -62.332031 C 8.371094 -49.925781 15.734375 -42.96875 35.402344 -30.863281 C 53.457031 -19.769531 60.820312 -15.332031 60.820312 -9.378906 C 60.820312 -4.839844 57.59375 -1.007812 50.332031 -1.007812 C 36.714844 -1.007812 27.535156 -15.332031 22.191406 -33.386719 Z M 4.035156 -22.289062" transform="translate(210.287 217.224)"/></g></g></g></svg>